<svg xmlns="http://www.w3.org/2000/svg" xmlns:xlink="http://www.w3.org/1999/xlink" xmlns:serif="http://www.serif.com/" width="100%" height="100%" viewBox="0 0 93 333" xml:space="preserve" style="fill:#ffffff;fill-rule:evenodd;clip-rule:evenodd;stroke-linejoin:round;stroke-miterlimit:2;">    <g transform="matrix(1,0,0,1,-143.373,-104.326)">        <path id="path0" d="M191.126,104.425C187.862,104.712 185.686,106.005 184.002,108.662C183.366,109.664 182.126,111.1 181.247,111.853C180.367,112.606 179.54,113.558 179.41,113.969C179.28,114.379 178.584,115.119 177.865,115.611C177.146,116.104 176.133,117.158 175.614,117.954C174.656,119.422 172.967,121.537 170.355,124.54C168.633,126.52 168.149,127.975 167.842,132.094C167.715,133.796 167.262,136.136 166.836,137.294C164.272,144.254 163.031,147.114 162.189,148.001C161.667,148.552 160.684,150.228 160.005,151.725C159.326,153.223 158.242,155.177 157.597,156.068C156.907,157.021 156.233,158.653 155.962,160.03C155.644,161.647 155.102,162.839 154.21,163.885C153.499,164.718 152.624,165.971 152.265,166.669C151.905,167.367 150.874,168.791 149.972,169.832C149.07,170.874 147.814,172.797 147.18,174.106C146.546,175.414 145.845,176.705 145.622,176.973C145.399,177.242 144.964,178.618 144.656,180.031C144.348,181.444 143.868,183.415 143.589,184.41C142.808,187.199 144.259,193.59 146.124,195.579C146.857,196.36 147.773,197.51 148.16,198.133C148.546,198.757 149.472,199.521 150.217,199.833C152.018,200.585 152.457,201.535 152.183,204.084C152.058,205.248 152.211,207.984 152.525,210.164L153.094,214.127L151.799,215.541C150.583,216.868 150.348,216.956 147.959,216.977C142.173,217.029 142.964,223.272 149.275,227.362C151.278,228.661 154.822,228.433 156.756,226.881C158.973,225.103 161.579,224.765 163.908,225.953C166.044,227.043 165.996,227.048 168.59,225.389C171.799,223.336 172.8,221.055 172.8,215.794C172.8,213.786 172.936,213.472 174.657,211.513C177.435,208.352 177.683,208.311 179.937,210.633C180.987,211.715 182.286,212.894 182.823,213.253L183.8,213.906L183.936,222.853C184.187,239.398 182.939,246.131 180.496,241.399C180.113,240.657 179.17,239.628 178.4,239.112C177.22,238.32 176.809,237.61 175.786,234.587C175.119,232.614 174.482,230.754 174.371,230.452C173.944,229.297 169.6,234.185 169.6,235.821C169.6,236.622 169.31,238.273 168.956,239.491C168.411,241.368 168.387,242.055 168.802,244.011C169.461,247.117 168.577,250.017 166.573,251.322C162.775,253.796 163.074,261.957 167.001,262.982C169.843,263.724 170.028,264.302 168.992,269.2C168.692,270.622 169.367,271.533 170.289,270.951C171.047,270.471 171.089,269.775 170.59,265.941C170.373,264.271 170.466,263.184 170.948,261.77C171.307,260.718 171.6,259.453 171.6,258.958C171.6,256.475 176.883,255.36 178.83,257.432L179.8,258.464L179.744,271.932C179.637,297.395 179.02,323.317 178.492,324.526C178.213,325.165 178,327.348 178,329.577C178,332.389 177.808,333.942 177.323,335.051C176.757,336.344 176.562,339.21 176.138,352.4C175.507,372.008 175.117,376.968 174.005,379.481C172.842,382.111 172.468,385.428 172.005,397.2C171.548,408.836 171.249,411.129 169.605,415.585C168.957,417.345 168.134,419.912 167.776,421.292C167.419,422.671 166.536,424.88 165.814,426.2C165.093,427.52 164.169,429.924 163.763,431.543L163.023,434.486L164.318,435.643C166.186,437.312 173.401,436.964 177.153,435.025C177.817,434.681 179.026,434.4 179.839,434.4C180.652,434.4 182.365,434.018 183.645,433.551C185.92,432.722 186.06,432.717 189.813,433.351C191.924,433.708 194.549,434 195.646,434C196.743,434 198.164,434.271 198.804,434.602C204.115,437.349 212.806,436.134 210.553,432.96C208.656,430.289 208.445,429.741 208.19,426.839C207.807,422.491 207.411,420.947 206.245,419.265C205.356,417.982 205.159,417.102 204.793,412.79C204.56,410.046 204.256,407.44 204.118,407C203.653,405.522 203.939,289.337 204.418,284.8C204.662,282.49 204.775,277.81 204.669,274.4C204.192,259.023 203.733,216.912 204.034,216.116C205.106,213.279 210.295,214.05 211.617,217.242C212.807,220.113 215.407,220.604 217.452,218.342C219.481,216.099 225.503,214.114 227.661,214.978C229.691,215.79 230.511,215.763 231.645,214.844L232.578,214.088L230.688,210.052L231.588,208.136C232.314,206.593 232.441,205.812 232.243,204.128C232.057,202.541 232.195,201.508 232.82,199.839C233.491,198.044 233.568,197.363 233.239,196.121C232.228,192.301 232.534,189.686 234.182,188.086L235.698,186.614L235.453,183.986C235.319,182.54 234.939,180.467 234.609,179.379C234.279,178.29 234.007,176.536 234.004,175.48C234.002,174.424 233.745,173.067 233.433,172.463C233.121,171.86 232.662,170.204 232.413,168.783C231.766,165.086 231.31,163.849 229.978,162.172C229.33,161.357 228.8,160.541 228.8,160.36C228.8,158.615 226.786,155.1 224.332,152.564C220.885,149 219.33,144.678 219.803,139.974L220.071,137.306L218.335,135.284C215.809,132.34 213.313,128.074 212.194,124.783C211.534,122.842 210.693,121.34 209.608,120.162C208.724,119.203 208,118.135 208,117.789C208,116.419 206.588,114.448 203.271,111.189C201.362,109.314 199.44,107.161 199,106.405C198.024,104.728 195.345,104.055 191.126,104.425" style="fill:white;"></path>    </g></svg>