<svg xmlns="http://www.w3.org/2000/svg" xmlns:xlink="http://www.w3.org/1999/xlink" xmlns:serif="http://www.serif.com/" width="100%" height="100%" viewBox="0 0 128 419" xml:space="preserve" style="fill:#ffffff;fill-rule:evenodd;clip-rule:evenodd;stroke-linejoin:round;stroke-miterlimit:2;">    <g transform="matrix(1,0,0,1,-127.6,-46.0199)">        <path id="path0" d="M195.451,47.67C193.335,49.138 192.93,49.664 191.365,52.967C189.63,56.629 188.684,57.843 186.803,58.816C180.923,61.859 178.63,65.938 180.943,69.24C181.381,69.865 181.429,70.381 181.14,71.335C180.309,74.067 180.697,77.97 182.001,80.002C183.14,81.777 183.182,81.987 182.799,84.007C182.289,86.695 182.277,86.704 180.826,85.484C180.162,84.925 179.08,84.349 178.42,84.204C177.278,83.954 174.894,82.024 171.571,78.661C169.621,76.686 168.821,77.418 167.822,82.093C167.694,82.694 167.042,83.807 166.375,84.568L165.161,85.95L166.188,87.976L167.215,90.003L166.439,91.501C165.326,93.652 161.714,97.021 159.523,97.954C155.102,99.834 155.393,104.123 160.054,105.765C163.551,106.997 165.284,107.991 167.406,109.984C168.885,111.372 169.85,111.938 171.078,112.134C175.606,112.858 173.832,115.35 168.2,116.175C165.205,116.614 164.442,117.511 164.853,120.111C165.291,122.882 164.469,123.751 160.661,124.547C157.127,125.285 156.965,125.468 157.729,127.864C158.068,128.929 158.464,130.739 158.608,131.886C158.848,133.784 159.021,134.066 160.536,135.027C163.334,136.803 163.643,137.46 162.914,140.081L162.296,142.301L160.338,142.533C157.878,142.824 157.766,142.898 156.752,144.927C156.293,145.847 155.185,147.357 154.292,148.283L152.667,149.966L154.269,151.704C157.302,154.994 157.071,158.221 153.614,160.857C152.192,161.941 151.707,162.643 151.216,164.325C150.502,166.767 150.15,167.054 147.419,167.412C142.093,168.109 139.993,171.939 142.774,175.884C144.554,178.409 143.089,180.357 140.697,178.647C140.204,178.294 139.394,177.711 138.897,177.352C138.032,176.726 137.914,176.76 136.131,178.149C135.107,178.947 134.058,179.6 133.8,179.6C132.945,179.6 127.6,185.033 127.6,185.902C127.6,186.359 128.182,187.186 128.9,187.75C129.615,188.311 130.47,189.067 130.8,189.429C131.13,189.791 132.318,191.013 133.439,192.144C134.571,193.285 135.938,195.217 136.511,196.485C137.245,198.113 137.809,198.829 138.471,198.975C144.119,200.223 143.697,199.982 144.979,202.684C145.795,204.404 146.491,205.306 147.241,205.617C148.386,206.091 148.786,206.983 148.795,209.086C148.799,210.091 149.208,210.763 150.666,212.16C152.763,214.169 152.859,213.592 149.753,217.649C147.449,220.659 146.809,221.151 143.743,222.264C142.256,222.803 139.861,224.023 138.42,224.974C136.979,225.925 135.08,227.066 134.2,227.509C131.195,229.022 128.592,233.461 129.873,234.886C131.977,237.223 133.819,238.028 135.615,237.395C137.629,236.684 140.94,236.627 143.523,237.259C145.853,237.829 145.866,237.841 145.101,238.698C144.757,239.084 144.273,240.155 144.028,241.079C143.765,242.066 143.132,243.104 142.49,243.601C140.369,245.242 136.462,249.948 136.611,250.682C136.691,251.077 136.867,252.09 137.002,252.933C137.3,254.787 138.583,255.468 144.3,256.803C148.488,257.781 148.707,258.021 146.26,258.956C145.303,259.321 144.107,260.06 143.602,260.598L142.683,261.576L143.398,263.888C144.535,267.569 144.997,268.185 147.954,269.972C151.04,271.837 151.786,272.736 152.642,275.616C153.701,279.181 156.733,280.201 159.727,277.999C160.624,277.34 161.727,276.792 162.179,276.782C162.63,276.773 163.677,276.523 164.505,276.228C165.845,275.75 166.171,275.773 167.489,276.446C169.398,277.419 169.844,277.394 171.941,276.195C174.176,274.917 174.419,274.94 175.5,276.527L176.4,277.85L176.4,370.063C176.4,459.487 176.423,462.296 177.145,462.95C179.399,464.99 200.601,464.99 202.855,462.95C203.577,462.297 203.6,459.554 203.602,372.838C203.604,315.761 203.746,282.89 203.996,281.991C204.82,279.025 207.988,276.636 211.323,276.468L214.231,276.321L216.215,278.158C219.571,281.263 219.778,281.475 220.519,282.553C222.116,284.88 224.606,283.308 224.219,280.215C223.912,277.753 224.151,277.459 227.005,276.795C231.562,275.734 232.192,275.075 231.782,271.796C231.444,269.089 230.506,268.183 227.718,267.873C225.139,267.587 223.769,266.723 223.211,265.033C222.677,263.416 221.062,261.836 219.11,261.02C217.399,260.305 216.682,259.127 216.028,255.954C215.493,253.354 214.684,252.46 211.729,251.206C210.589,250.722 209.565,250.086 209.453,249.794C209.341,249.501 208.261,248.532 207.054,247.64C205.847,246.749 204.75,245.674 204.617,245.253C204.354,244.425 203.468,244.004 199.9,243.015C195.485,241.791 198.928,239.809 203.8,240.77C205.406,241.086 206.588,241.001 209.8,240.335C214.821,239.295 215.6,238.682 215.6,235.773C215.6,232.887 217.466,232.265 220.314,234.2C221.426,234.956 222.303,235.2 223.906,235.2C225.379,235.2 226.633,235.508 228.012,236.206L229.998,237.212L232.417,235.991C235.055,234.66 235.034,234.687 235.558,231.841C235.979,229.554 236.739,230.42 228.012,223.231L226.625,222.088L227.662,220.144C228.232,219.075 228.806,217.224 228.939,216.03C229.213,213.556 229.263,213.508 232.855,212.337C234.315,211.861 235.898,211.179 236.372,210.821L237.234,210.171L236.215,207.946C234.92,205.117 234.264,204.563 231.8,204.218C225.51,203.337 226.779,200.215 233.553,199.906L237.705,199.717L239.183,198.117C240.461,196.733 241.027,196.448 243.382,196.003C246.028,195.504 246.183,195.406 248.952,192.489C250.518,190.838 252.571,188.721 253.513,187.784L255.225,186.08L254.579,184.464C253.965,182.928 253.83,182.836 251.83,182.586C250.081,182.368 249.614,182.132 249.052,181.181C248.156,179.664 246.669,178.666 244,177.791C242.79,177.394 240.958,176.68 239.928,176.203C238.435,175.511 237.647,175.389 236.03,175.596C233.622,175.905 233.001,175.415 231.592,172.098L230.7,169.996L231.516,168.109C232.491,165.859 232.264,165.229 229.952,163.77C229.062,163.208 228.1,162.18 227.806,161.476C227.513,160.774 226.881,159.702 226.402,159.093L225.532,157.987L227.624,155.693C229.122,154.051 230.499,153.036 232.472,152.119C239.712,148.751 238.183,139.571 230.335,139.289C225.308,139.109 225.313,139.111 224.589,136.621C224.24,135.42 224.012,133.44 224.079,132.183L224.2,129.913L227.4,128.762C229.469,128.017 230.953,127.204 231.6,126.461C232.15,125.829 233.323,124.861 234.206,124.31C236.942,122.604 237.111,122.211 236.002,120.121C234.669,117.608 233.838,117.189 229.646,116.918L226.023,116.683L225.645,115.442C225.033,113.431 224.298,109.967 224.455,109.833C224.535,109.765 225.818,109.135 227.306,108.432C231.743,106.336 232.929,102.516 229.81,100.372C228.591,99.534 227.984,98.687 227.21,96.739C225.983,93.654 224.462,92.707 220.4,92.497C216.44,92.293 216.013,92.13 215.361,90.568C215.039,89.797 214.504,89.061 214.173,88.934C212.166,88.164 212.089,85.19 214.028,83.295L215.267,82.083L214.86,78.026C214.528,74.717 214.559,73.717 215.027,72.598C216.313,69.52 213.698,65.984 208.051,63.162C205.243,61.759 204.997,61.419 204.609,58.4C203.789,52.019 202.899,49.805 200.358,47.832C199.061,46.825 197.954,46.009 197.899,46.02C197.845,46.031 196.743,46.774 195.451,47.67M170.8,126C170.8,126.22 170.53,126.4 170.2,126.4C169.87,126.4 169.6,126.22 169.6,126C169.6,125.78 169.87,125.6 170.2,125.6C170.53,125.6 170.8,125.78 170.8,126M178.55,125.919C178.995,126.639 178.093,127.375 177.435,126.829C177.091,126.543 176.907,126.15 177.028,125.955C177.301,125.513 178.285,125.49 178.55,125.919M155.62,221.01C157.106,221.779 157.097,222.079 155.55,223.381C154.113,224.59 153.75,224.553 152.654,223.085C151.213,221.156 153.206,219.762 155.62,221.01M212.589,229.37C213.876,229.908 213.934,230.013 213.615,231.27C213.429,232.001 213.172,233.074 213.043,233.652C212.325,236.873 203.6,236.253 203.6,232.981C203.6,232.367 203.295,232.01 202.627,231.842C201.636,231.594 200.945,230.335 201.398,229.604C201.863,228.851 203.017,229.195 204.075,230.4C205.401,231.911 205.563,231.902 207.6,230.2C209.425,228.675 210.499,228.496 212.589,229.37M155.074,236.806C156.038,238.723 154.027,239.989 152.176,238.63C151.421,238.075 151.433,238.025 152.581,236.823C153.904,235.438 154.385,235.435 155.074,236.806M175.406,241.049C175.789,243.62 173.834,246.074 172.48,244.72C171.58,243.82 172.283,240.229 173.698,238.491C174.274,237.784 175.104,239.026 175.406,241.049M172,245.577C172,245.962 170.44,247.2 169.954,247.2C169.557,247.2 169.162,245.985 169.422,245.564C169.72,245.082 172,245.094 172,245.577M167.638,249.446C168.098,250 168.039,250.201 167.226,250.859C166.178,251.708 165.659,251.672 165.052,250.71C164.156,249.29 166.541,248.124 167.638,249.446M206.974,262.042C206.695,262.494 205.6,262.513 205.6,262.067C205.6,261.504 206.05,261.244 206.637,261.469C206.944,261.587 207.096,261.845 206.974,262.042M166.4,262C166.4,262.222 165.333,262.4 164,262.4C162.667,262.4 161.6,262.222 161.6,262C161.6,261.778 162.667,261.6 164,261.6C165.333,261.6 166.4,261.778 166.4,262" style="fill:white;"></path>    </g></svg>