<svg xmlns="http://www.w3.org/2000/svg" xmlns:xlink="http://www.w3.org/1999/xlink" xmlns:serif="http://www.serif.com/" width="100%" height="100%" viewBox="0 0 121 432" xml:space="preserve" style="fill:#ffffff;fill-rule:evenodd;clip-rule:evenodd;stroke-linejoin:round;stroke-miterlimit:2;">    <g transform="matrix(1,0,0,1,-140.963,-72.2054)">        <path id="path0" d="M191.347,72.741C189.369,73.431 188.146,74.334 185.458,77.091C183.444,79.158 182.536,80.057 179.982,82.514C178.463,83.976 177.227,85.621 176.626,86.98C176.102,88.164 175.313,89.325 174.873,89.561C174.432,89.797 173.7,90.592 173.245,91.327C172.791,92.062 171.83,92.987 171.109,93.382C169.471,94.28 167.916,97.394 167.679,100.251C167.526,102.102 167.3,102.525 165.554,104.246C163.729,106.043 163.6,106.303 163.599,108.185C163.599,110.018 163.454,110.336 161.999,111.705C159.984,113.601 159.999,113.912 162.2,115.915C164.42,117.935 164.42,118.064 162.215,120.071C161.234,120.964 160.216,122.349 159.953,123.148C159.69,123.946 159.067,125.23 158.567,126C158.068,126.77 157.449,128.21 157.191,129.2C156.617,131.401 156.176,131.967 154.483,132.675C152.737,133.404 152.581,133.989 153.548,136.175L154.359,138.009L153.383,140.105C151.673,143.778 152.094,146.156 154.944,148.936C156.437,150.392 156.396,154.558 154.868,156.705C154.363,157.413 153.846,158.669 153.718,159.496C153.464,161.141 152.542,163.166 151.038,165.382C150.505,166.168 149.94,167.569 149.784,168.496C149.481,170.287 147.42,172.8 146.254,172.8C144.529,172.8 144.758,174.778 146.728,176.9L147.75,178L146.701,179.1C146.124,179.705 145.298,181.028 144.866,182.04C144.434,183.051 143.547,184.311 142.894,184.84C140.471,186.802 140.278,195.136 142.603,197.46C143.477,198.334 143.669,201.986 142.969,204.4C141.303,210.142 141.31,209.98 142.685,211.147C143.368,211.726 144.217,212.784 144.573,213.499C144.951,214.258 145.769,215.027 146.542,215.35C147.27,215.654 148.263,216.408 148.749,217.025C149.234,217.643 150.175,218.478 150.84,218.883C152.917,220.146 154.215,225.251 153.037,227.528C152.713,228.154 152.174,229.849 151.839,231.293C151.504,232.738 150.766,234.605 150.198,235.441C148.963,237.261 149.036,238.418 150.425,239.082C152.31,239.983 152.902,241.032 153.169,243.946C153.359,246.019 153.691,247.089 154.511,248.271C155.11,249.136 155.6,250.216 155.6,250.672C155.6,253.182 156.037,253.907 157.861,254.417C158.838,254.691 160.198,255.437 160.881,256.076C162.108,257.222 162.145,257.229 163.67,256.619C165.835,255.752 166.127,255.81 168.123,257.5C169.097,258.325 170.436,259.294 171.099,259.654C172.046,260.167 172.495,260.881 173.193,262.978C174.59,267.176 181.184,269.715 180.231,265.688C178.895,260.043 178.994,256.791 180.556,254.912C182.228,252.902 182.501,251.914 182.787,246.829C183.159,240.195 184.755,237.337 187.032,239.226C190.031,241.715 189.607,260.701 186.528,261.785C185.606,262.109 183.111,266.06 182.399,268.324C181.705,270.528 177.269,273.198 174.298,273.2C174.024,273.2 173.118,273.808 172.284,274.549C171.436,275.305 169.675,276.255 168.284,276.709L165.8,277.519L165.445,279.692C164.791,283.706 165.365,285.875 167.792,288.56L169.925,290.921L172.02,290.507C173.818,290.151 174.388,290.206 176.038,290.891L177.961,291.69L179.803,290.745C180.817,290.225 182.107,289.555 182.67,289.256C184.81,288.118 186.643,288.188 187.46,289.438C188.169,290.522 188.197,292.239 188.128,329.985L188.056,369.4L187.178,372C186.392,374.329 186.268,375.81 185.99,386.2C185.82,392.58 185.499,398.88 185.277,400.2C185.055,401.52 184.755,410.97 184.611,421.2C184.262,445.928 183.838,455.598 182.981,458.4C182.611,459.61 182.157,462.457 181.973,464.726C181.788,466.995 181.542,469.155 181.426,469.526C181.31,469.897 181.035,473.049 180.815,476.53C180.368,483.595 179.974,485.557 178.59,487.6C178.052,488.395 177.294,490.605 176.836,492.713C176.099,496.106 175.01,498.8 174.375,498.8C173.598,498.8 172.673,502.045 173.277,502.649C174.633,504.005 185.91,503.24 188.682,501.604C189.927,500.87 190.139,500.857 191.773,501.411C194.683,502.4 197.235,502.75 202.174,502.841L206.878,502.927L208.255,501.424C209.787,499.751 210.72,499.719 212.889,501.264C213.9,501.983 214.127,502.011 214.914,501.51C216.333,500.606 225.725,497.501 228.465,497.029C229.638,496.827 230.228,496.979 231.421,497.788C232.256,498.355 233.481,498.8 234.206,498.8C234.918,498.8 236.033,498.907 236.685,499.037C239.406,499.581 239.612,496.903 237.06,494.151C236.517,493.565 235.848,492.257 235.574,491.243C234.998,489.114 234.137,487.28 233.339,486.482C232.342,485.485 231.674,483.817 231.217,481.183C230.722,478.334 230.068,476.4 229.597,476.4C228.775,476.4 227.936,473.99 227.232,469.601C226.758,466.647 226.136,464.219 225.637,463.372C224.111,460.786 223.42,457.096 222.011,444C221.858,442.57 221.393,440.77 220.98,440C220.368,438.861 220.173,437.297 219.932,431.6C219.31,416.903 218.435,409.403 216.712,404C215.924,401.529 215.878,400.374 215.775,380.8C215.63,353.339 215.029,325.09 214.574,324.377C214.372,324.059 214.099,320.38 213.967,316.2C213.783,310.389 213.549,308.035 212.972,306.2C211.48,301.451 212.131,292.381 213.962,292.403C214.412,292.408 219.483,297.401 219.96,298.308C220.222,298.808 220.603,300.674 220.806,302.455C221.362,307.33 221.373,307.348 223.341,306.971C227.232,306.227 230.345,307.002 232.38,309.224C235.827,312.987 241.574,310.74 242.771,305.162C243.442,302.033 243.315,301.329 241.768,299.617L240.336,298.032L242.558,294.078L241.552,292.539C239.568,289.502 239.2,287.938 239.2,282.528L239.2,277.473L241,275.82C242.981,274.001 243.198,272.832 242.414,268.2C241.908,265.216 243.522,258.4 244.734,258.4C244.906,258.4 245.9,257.412 246.943,256.205L248.838,254.009L248.471,251.992C247.82,248.41 249.876,246.841 251.842,249.42C254.168,252.47 255.878,247.733 254.046,243.312C253.584,242.195 253.649,241.633 254.623,238.327C255.869,234.097 255.73,232.304 253.836,228.167L252.844,225.999L254.078,224.846C254.756,224.212 256.016,223.482 256.877,223.224C258.76,222.66 259.041,222.066 258.516,219.77C257.961,217.343 258.676,216.165 261.919,214.169C261.984,214.129 261.676,213.399 261.235,212.548C260.002,210.167 259.246,206.716 258.948,202.111C258.799,199.804 258.479,197.753 258.238,197.554C257.997,197.354 257.3,196.816 256.689,196.358C256.078,195.899 255.215,194.866 254.773,194.062C254.33,193.258 253.543,192.015 253.024,191.3C252.022,189.921 251.404,187.666 250.992,183.888C250.745,181.631 250.697,181.556 248.994,180.755C245.7,179.207 245.493,176.721 248.483,174.627L249.301,174.054L248.494,173.028C248.05,172.464 247.372,170.72 246.988,169.152C246.548,167.355 245.887,165.84 245.199,165.051C244.599,164.363 243.976,163.35 243.815,162.8C243.653,162.25 242.664,160.99 241.617,160C239.849,158.329 239.692,158.02 239.436,155.7C239.2,153.556 238.964,153.009 237.78,151.86C235.849,149.985 236.056,148.053 238.566,144.495C239.245,143.533 240.43,141.548 241.2,140.084C242.399,137.802 242.89,137.276 244.622,136.41C248.771,134.337 249,133.439 247.182,126.393C246.458,123.587 242.709,120.8 239.659,120.8C235.25,120.8 233.123,117.745 236.387,116.099C239.207,114.677 239.34,114.442 239.02,111.446C238.836,109.729 238.42,108.352 237.818,107.465C236.593,105.659 236.083,104.013 235.431,99.757C234.762,95.389 234.324,94.231 233.021,93.377C232.456,93.007 231.798,92.02 231.538,91.151C230.961,89.226 230.749,89.054 227.95,88.252C223.696,87.032 219.981,83.126 219.356,79.213C218.822,75.875 215.478,74.191 212.232,75.627C209.97,76.628 208.888,76.445 207.336,74.801C206.37,73.778 205.907,73.6 204.201,73.599C203.101,73.599 200.76,73.34 199,73.023C197.24,72.706 195.26,72.352 194.6,72.236C193.933,72.12 192.489,72.344 191.347,72.741" style="fill:white;"></path>    </g></svg>