<svg xmlns="http://www.w3.org/2000/svg" xmlns:xlink="http://www.w3.org/1999/xlink" xmlns:serif="http://www.serif.com/" width="100%" height="100%" viewBox="0 0 155 411" xml:space="preserve" style="fill:#ffffff;fill-rule:evenodd;clip-rule:evenodd;stroke-linejoin:round;stroke-miterlimit:2;">    <g transform="matrix(1,0,0,1,-114.15,-45.2)">        <path id="path0" d="M183.449,47.551L181.123,49.901L181.261,52.246L181.4,54.591L179.659,55.195L177.917,55.8L176.259,53.918C175.056,52.553 173.965,51.802 172.29,51.185L169.981,50.335L168.29,51.326C165.202,53.136 164.9,53.724 166.142,55.517C167.535,57.527 167.479,58.194 165.759,60.098C163.87,62.189 163.836,66.36 165.684,69.041C167.257,71.323 167.668,73.626 166.939,76.08C166.408,77.868 166.412,78.246 166.973,79.648C168.26,82.865 166.791,84.275 164.621,81.907C163.375,80.547 163.291,80.521 159.367,80.305C155.012,80.065 153.118,79.464 151.63,77.852C150.161,76.258 149.606,76.499 145.634,80.453L141.964,84.105L140.982,83.183C140.442,82.676 140,82.033 140,81.754C140,81.14 136.624,77.596 135.118,76.627C133.83,75.799 133.483,75.967 132.165,78.056C131.501,79.107 130.573,79.897 129.425,80.389C128.47,80.799 127.567,81.33 127.419,81.57C127.27,81.81 125.841,82.974 124.243,84.156C120.458,86.954 120.022,87.899 119.74,93.902C119.437,100.362 120.013,101.513 124.69,103.8C126.489,104.68 128.465,105.881 129.081,106.469C129.696,107.056 130.9,107.666 131.755,107.823C133.261,108.101 134.8,109.195 134.8,109.989C134.8,110.203 133.765,110.664 132.5,111.014C127.594,112.37 127.039,113.16 128.411,116.829C129.29,119.18 129.311,119.484 128.864,123.347C128.162,129.42 128.245,141.339 129,142.799C131.612,147.851 133.235,149.089 135.886,148.048C141.103,146 149.563,146.988 154.4,150.211C155.17,150.724 156.79,151.583 158,152.12C159.617,152.838 160.677,153.698 162,155.364C162.99,156.61 164.16,158.082 164.6,158.635C165.241,159.441 165.877,159.687 167.8,159.875C170.816,160.169 171.533,160.541 172.21,162.162C172.621,163.145 173.139,163.575 174.352,163.938C176.817,164.677 176.969,167.241 174.583,167.84C173.38,168.142 172.471,167.467 171.747,165.734C171.201,164.427 170.992,164.337 167.2,163.777C164.72,163.41 162.818,162.568 161.4,161.21C160.622,160.465 159.287,159.826 157.601,159.394C156.171,159.027 153.972,158.293 152.713,157.763C150.531,156.845 149.978,156.796 140.912,156.729C129.97,156.648 130.02,156.639 128.328,159.127C127.628,160.157 126.397,161.756 125.594,162.681C121.9,166.93 120.707,169.216 120.943,171.591C121.251,174.684 121.698,174.931 126.5,174.656L130.399,174.434L132.048,176.617C133.901,179.072 133.937,179.083 136.344,177.991C141.133,175.818 142.93,176.981 143.072,182.343C143.199,187.193 143.344,187.755 144.609,188.331C146.044,188.985 149.466,188.916 151.936,188.182C153.462,187.729 155.402,187.595 159.21,187.682C164.395,187.8 164.405,187.798 165.302,186.742C165.942,185.989 166.72,185.621 168.009,185.463C170.862,185.112 170.964,185.291 170.651,190.124C170.247,196.371 171.137,199.84 173.422,200.93C176.126,202.219 174.391,203.126 170.262,202.581C167.265,202.186 165.132,202.189 161.191,202.593C157.245,202.998 157.077,202.801 156.865,197.531C156.68,192.93 156.523,192.723 152.525,191.81C143.738,189.803 132.068,191.048 128.6,194.362C127.72,195.203 126.46,196.202 125.8,196.581C124.291,197.449 121.374,201.919 120.586,204.572C120.191,205.903 119.395,207.196 118.234,208.392C113.672,213.094 112.989,216.762 115.9,220.927C116.945,222.423 118.61,225.211 119.6,227.123C121.317,230.439 121.483,230.624 123.2,231.114C124.19,231.397 125.424,231.757 125.943,231.914C126.476,232.076 127.346,233 127.943,234.037C128.524,235.047 129.583,236.487 130.295,237.237C131.008,237.987 132.094,239.203 132.71,239.941L133.829,241.282L135.991,240.64L138.154,239.998L139.224,241.023C140.007,241.774 140.359,242.598 140.537,244.1C140.967,247.731 144.267,248.401 150.14,246.05C153.745,244.606 153.787,244.601 156.174,245.412C157.81,245.967 158.163,245.963 159.989,245.366L162.001,244.708L163.59,246.144C165.59,247.95 166.434,248.155 170.848,247.903C176.682,247.57 176,236.976 176,327.975C176,412.452 176.121,407.542 173.98,409.821C173.55,410.279 172.747,411.805 172.196,413.211C171.644,414.618 170.67,416.316 170.031,416.984C169.392,417.653 168.411,419.338 167.851,420.728C167.291,422.119 166.305,423.858 165.661,424.592C165.016,425.326 164.199,426.798 163.844,427.863C163.49,428.929 162.727,430.34 162.148,431C161.569,431.66 160.686,433.11 160.187,434.223C159.687,435.335 158.811,436.801 158.24,437.48C157.669,438.159 156.672,440.015 156.024,441.606C155.377,443.196 154.498,444.881 154.071,445.349C153.013,446.508 152.224,448.169 151.445,450.88C151.084,452.133 150.612,453.269 150.395,453.403C147.56,455.155 159.154,456.345 164.064,454.805C166.31,454.101 167.765,454.009 176.8,453.996C182.903,453.987 187.643,453.805 188.6,453.543C189.48,453.302 196.14,452.95 203.4,452.761C219.728,452.337 222.651,452.08 223.475,450.998C224.237,449.997 223.901,436.542 222.967,430.697C222.643,428.664 222.213,425.154 222.011,422.899C221.81,420.643 221.533,418.615 221.395,418.391C221.102,417.918 220.603,410.594 219.816,395.2C219.506,389.15 219.068,383.595 218.842,382.856C218.616,382.117 218.319,379.687 218.184,377.456C218.048,375.225 217.748,372.86 217.517,372.2C217.073,370.929 216.754,366.31 215.857,348.2C215.449,339.955 215.13,336.538 214.651,335.25C214.218,334.086 213.998,332.209 213.994,329.65C213.99,327.32 213.76,325.168 213.412,324.2C213.095,323.32 212.827,321.27 212.818,319.645C212.808,318.019 212.623,314.689 212.408,312.245C212.192,309.8 211.828,303.728 211.599,298.752C211.355,293.435 210.939,288.767 210.592,287.433C210.266,286.183 209.996,284.225 209.99,283.08C209.985,281.936 209.8,280.28 209.579,279.4C208.435,274.852 207.248,246.252 208.16,245.244C209,244.316 214.265,242.4 215.974,242.4C217.603,242.4 221.432,240.45 223.762,238.433C224.899,237.449 226.183,236.739 227.104,236.585C234.357,235.372 237.05,232.037 234.185,227.817C233.254,226.443 233.127,224.8 233.953,224.8C236.043,224.8 236.602,217.59 234.705,215.103C234.121,214.336 233.523,213.232 233.376,212.648C233.23,212.065 232.653,211.228 232.094,210.788C230.819,209.785 230.982,209.632 233.646,209.334C236.091,209.06 237.2,208.308 237.2,206.925C237.2,205.612 238.994,202.19 240.082,201.428C241.503,200.432 242.522,200.681 244.219,202.437C246.706,205.012 250.256,204.489 251.26,201.4C251.952,199.271 251.616,196.93 250.399,195.398C249.199,193.888 247.945,190.492 247.417,187.323C246.936,184.436 245.473,184.285 240.274,186.584C236.385,188.304 234.532,186.797 237.4,184.247C239.849,182.069 239.653,181.406 236.19,180.161C234.907,179.699 233.171,178.746 232.334,178.042C231.496,177.339 230.133,176.481 229.305,176.136C224.943,174.317 223.585,171.838 224.087,166.607C224.689,160.338 225.299,159.644 228.144,161.995C229.206,162.872 230.822,163.774 231.737,163.999C235.697,164.975 241.63,168.453 243.062,170.638C245.941,175.033 254.084,173.476 255.743,168.213C256.556,165.636 256.31,164.898 254.233,163.672C252.825,162.842 252.454,162.012 251.814,158.272C251.664,157.393 251.053,156.221 250.377,155.513C248.481,153.529 248.919,152.666 252.058,152.198C253.616,151.966 254.069,151.686 254.858,150.469C255.389,149.651 256.65,148.568 257.747,147.989C258.817,147.424 259.925,146.519 260.208,145.978C260.491,145.438 261.46,144.403 262.361,143.679C263.263,142.955 264,142.127 264,141.84C264,141.553 264.824,140.077 265.832,138.559C268.406,134.682 268.541,134.232 267.798,131.993C267.205,130.208 267.216,129.99 267.997,128.008C269.01,125.438 268.826,125.137 265.254,123.535C262.99,122.519 262.739,122.293 262.98,121.496C263.871,118.552 263.721,117.449 262.235,116.022C260.54,114.393 260.446,113.435 261.8,111.6C262.526,110.616 262.798,109.745 262.794,108.422C262.785,105.645 262.461,105.356 259.999,105.924C258.866,106.186 257.008,106.402 255.869,106.404C254.731,106.407 252.945,106.668 251.9,106.985C247.952,108.183 246.62,103.288 249.956,99.845C251.547,98.204 252.399,95.489 252.405,92.036C252.409,89.967 252.624,89.026 253.405,87.659C254.123,86.404 254.4,85.324 254.4,83.788L254.4,81.658L251.999,80.199C250.615,79.359 249.104,78.023 248.433,77.047C245.651,73.005 243.51,71.795 239.634,72.075C237.497,72.23 236.87,72.491 234.56,74.188C234.174,74.471 233.56,74.084 232.283,72.752C229.327,69.666 226.518,69.536 223.873,72.363C222.479,73.853 221.937,74.206 221.624,73.829C220.639,72.642 220.073,69.915 220.071,66.353C220.068,61.118 218.462,56.855 217.038,58.3C216.875,58.465 215.913,58.87 214.899,59.2C213.498,59.656 212.753,60.232 211.794,61.6C209.847,64.378 209.234,63.991 207.722,59.03C206.673,55.588 205.712,55 201.13,55L197.52,55L196.135,53.4C195.373,52.52 194.024,50.86 193.136,49.712C191.649,47.789 187.683,45.2 186.224,45.2C185.977,45.2 184.728,46.258 183.449,47.551M143.376,117.02C144.195,118.27 144.192,118.28 142.82,118.99C141.288,119.782 138.63,119.766 136.235,118.95C133.718,118.093 134.302,117.484 138.601,116.482C142.193,115.645 142.498,115.68 143.376,117.02M194.741,129.254C195.396,130.302 194.663,130.969 193.526,130.36C192.923,130.038 192.887,129.85 193.3,129.188C193.921,128.194 194.084,128.202 194.741,129.254M210.7,130.1C210.608,130.375 210.293,130.6 210,130.6C209.707,130.6 209.392,130.375 209.3,130.1C209.201,129.803 209.484,129.6 210,129.6C210.516,129.6 210.799,129.803 210.7,130.1M234.8,138C234.8,138.22 234.53,138.4 234.2,138.4C233.87,138.4 233.6,138.22 233.6,138C233.6,137.78 233.87,137.6 234.2,137.6C234.53,137.6 234.8,137.78 234.8,138M243.191,145.512C244.062,146.217 244.063,146.234 243.305,147.17C242.399,148.289 240.19,148.115 239.029,146.832C238.282,146.007 238.488,145.748 240.331,145.191C241.941,144.705 242.235,144.738 243.191,145.512M223.425,202.041C224.071,202.724 225.545,203.892 226.7,204.636C227.855,205.381 228.8,206.055 228.8,206.135C228.8,207.7 227.787,208.779 225.951,209.173C221.706,210.084 221.111,209.699 219.616,205.08C219.346,204.244 218.782,203.345 218.362,203.084C217.607,202.612 217.353,201.58 217.867,201.067C218.728,200.205 222.276,200.828 223.425,202.041M208.4,210C208.4,210.453 206.105,210.714 205.509,210.329C205.097,210.063 205.097,209.937 205.509,209.671C206.105,209.286 208.4,209.547 208.4,210M182.794,209.9C182.776,210.785 181.998,211.397 181.626,210.819C181.421,210.5 181.342,210.095 181.45,209.919C181.7,209.515 182.802,209.499 182.794,209.9M182.827,217.25C183.275,218.087 182.695,220 181.994,220C181.372,220 180.92,218.186 181.321,217.3C181.83,216.175 182.244,216.161 182.827,217.25" style="fill:white;"></path>    </g></svg>