<svg xmlns="http://www.w3.org/2000/svg" xmlns:xlink="http://www.w3.org/1999/xlink" xmlns:serif="http://www.serif.com/" width="100%" height="100%" viewBox="0 0 110 407" xml:space="preserve" style="fill:#ffffff;fill-rule:evenodd;clip-rule:evenodd;stroke-linejoin:round;stroke-miterlimit:2;">    <g transform="matrix(1,0,0,1,-121.228,-84.0777)">        <path id="path0" d="M183.014,84.397C182.069,84.579 181.18,85.063 180.814,85.595C178.923,88.345 178.796,88.398 173.918,88.43C166.864,88.476 166.094,88.672 164.61,90.8C163.54,92.335 162.976,92.723 160.778,93.437C158.226,94.265 158.187,94.3 156.938,96.875C156.049,98.708 155.267,99.717 154.29,100.294C153.528,100.744 152.566,101.594 152.152,102.184C151.738,102.774 150.994,103.721 150.498,104.289C150.002,104.857 149.382,106.034 149.121,106.905C148.842,107.837 148.107,108.919 147.333,109.537C145.98,110.616 145.374,112.432 145.112,116.2C145.003,117.755 144.945,117.814 143.068,118.277C137.773,119.584 134.036,127.849 137.292,131.055C138.24,131.99 140.592,133.566 142.8,134.747C145.624,136.258 147.112,137.846 147.778,140.06C148.49,142.425 148.194,143.081 144.334,147.717L143.269,148.996L138.697,148.998C133.705,149 133.192,149.187 132.185,151.368C131.872,152.046 131.398,152.9 131.132,153.266C130.743,153.8 130.797,154.262 131.406,155.613C133.534,160.331 131.706,164.346 126.966,165.369C126.077,165.56 125.544,166.027 125.063,167.038C124.694,167.81 123.853,168.747 123.192,169.121C121.095,170.307 120.53,174.096 122.218,175.658C123.926,177.24 124.486,178.754 124.701,182.375C125.009,187.552 125.864,188.619 126.99,185.231C127.953,182.331 129.784,181.04 132.419,181.403C134.658,181.711 134.673,181.727 133.664,182.736C133.122,183.278 132.861,184.349 132.671,186.817C132.329,191.249 132.907,192.022 136.331,191.715C139.491,191.431 141.853,192.155 143.363,193.87C144.043,194.642 145.707,195.778 147.059,196.394C149.53,197.518 149.691,197.723 150.213,200.4C150.363,201.17 150.818,202.162 151.224,202.605C151.63,203.048 152.23,204.053 152.558,204.837C153.281,206.568 153.736,206.954 155.8,207.585C156.68,207.855 158.301,208.68 159.402,209.419C162.628,211.584 170.407,212.27 173.48,210.66C174.443,210.155 174.438,210.148 172.023,208.25L169.6,206.347L169.6,201.616L171.262,200.768C176.958,197.862 181.636,202.566 179.831,209.384C179.484,210.695 179.198,213.125 179.195,214.784C179.192,216.613 178.891,218.751 178.432,220.216C176.804,225.408 176.316,241.423 177.579,248.2C178.069,250.825 178.067,269.01 177.577,272.6C177.209,275.297 176.803,284.807 176.039,308.6C175.761,317.29 175.526,320.293 174.993,322C174.497,323.584 174.234,326.327 174.052,331.8C173.914,335.98 173.66,339.616 173.488,339.881C173.119,340.451 172.017,364.648 172.007,372.421C172.001,377.35 171.911,378.023 171.026,379.821C170.136,381.628 170.037,382.39 169.886,388.6C169.794,392.34 169.518,397.47 169.271,400C169.024,402.53 168.617,409.37 168.365,415.2C167.996,423.78 167.759,426.257 167.121,428.2C166.688,429.52 166.189,432.4 166.013,434.6C165.836,436.8 165.494,439.77 165.253,441.2C165.012,442.63 164.646,446.914 164.439,450.721C164.086,457.225 163.99,457.794 162.845,460.167C161.555,462.844 161.053,464.725 160.602,468.574C160.268,471.424 159.883,472.524 158.528,474.493C157.964,475.313 157.153,477.293 156.726,478.893C156.299,480.492 155.685,482.16 155.362,482.6C152.902,485.944 152.8,486.159 152.8,487.983C152.8,491.653 154.351,491.958 159.4,489.28C161.235,488.306 161.844,488.209 166.8,488.105C169.77,488.042 172.92,487.969 173.8,487.942C174.68,487.916 176.3,487.92 177.4,487.951C186.948,488.225 217.648,487.201 218.653,486.575C219.713,485.914 218.714,480.4 217.535,480.4C216.772,480.4 215.645,476.918 215.399,473.8C215.035,469.189 214.549,467.064 213.222,464.27C211.882,461.449 211.429,459.122 210.796,451.819C210.424,447.528 210.15,446.223 209.2,444.219C207.869,441.413 207.208,436.863 207.192,430.4C207.186,428.09 206.984,425.48 206.744,424.6C206.504,423.72 206.166,420.57 205.994,417.6C205.819,414.574 205.383,411.233 205.005,410C204.159,407.251 203.264,387.386 203.201,370C203.178,363.51 202.968,356.94 202.735,355.4C202.492,353.79 202.19,340.614 202.026,324.4C201.768,298.85 201.674,295.993 201.024,294C200.172,291.385 199.83,280.948 199.38,243.8C199.063,217.636 199.069,217.551 201.413,215.763C202.979,214.569 203.134,213.652 202.177,211.26C201.804,210.328 201.604,208.845 201.677,207.564L201.8,205.425L203.835,204.812C206.628,203.972 209.01,202.225 210.934,199.606C211.826,198.393 213.331,196.642 214.278,195.715C215.225,194.788 216,193.784 216,193.483C216,193.183 216.518,192.141 217.15,191.169C217.849,190.094 218.403,188.583 218.562,187.318C219.141,182.698 221.562,179.408 227.744,174.841C231.321,172.199 231.99,169.802 229.482,168.612C227.839,167.832 227.341,166.904 227.007,164C226.785,162.066 226.558,161.63 225.127,160.39C223.701,159.154 223.475,158.722 223.3,156.901C223.149,155.327 222.918,154.764 222.35,154.584C220.608,154.031 221.747,153.608 224.33,153.848L227.061,154.102L227.584,152.838C228.2,151.353 227.979,148.519 226.791,142.64C225.951,138.481 225.898,138.389 221.677,133.839C219.955,131.984 219.629,131.15 219.614,128.567C219.59,124.457 218.855,121.694 217.536,120.754C216.905,120.305 216.104,119.366 215.756,118.668C215.409,117.971 214.332,116.655 213.362,115.743C211.812,114.286 211.6,113.881 211.6,112.376C211.6,108.635 210.797,105.652 209.549,104.764C208.907,104.307 208,103.183 207.533,102.266C206.355,99.952 203.974,97.755 201.418,96.625C199.933,95.968 199.056,95.282 198.618,94.434C198.267,93.755 197.811,93.2 197.605,93.2C196.739,93.2 195.603,91.331 195.201,89.242C194.339,84.773 194.722,85.2 191.58,85.2C189.991,85.2 188.152,84.94 187.338,84.6C185.786,83.952 185.42,83.934 183.014,84.397" style="fill:white;"></path>    </g></svg>