<svg xmlns="http://www.w3.org/2000/svg" xmlns:xlink="http://www.w3.org/1999/xlink" xmlns:serif="http://www.serif.com/" width="100%" height="100%" viewBox="0 0 215 363" xml:space="preserve" style="fill:#ffffff;fill-rule:evenodd;clip-rule:evenodd;stroke-linejoin:round;stroke-miterlimit:2;">    <g transform="matrix(1,0,0,1,-84.7954,-45.3979)">        <path id="path0" d="M255.949,46.57C251.327,50.24 251.663,49.782 252.054,51.878C252.428,53.881 251.977,56.051 250.937,57.245C250.629,57.599 250.207,58.929 250,60.2C249.566,62.865 248.917,63.723 246.35,65.025C245.332,65.541 244.403,66.215 244.285,66.524C244.166,66.832 243.07,67.649 241.847,68.338C239.993,69.385 239.481,69.927 238.754,71.618C237.333,74.922 234.495,76.025 232.259,74.143L231.003,73.086L224.201,73.354C218.283,73.587 217.257,73.726 216.297,74.425C215.69,74.867 213.904,75.721 212.327,76.322C210.751,76.924 209.391,77.628 209.304,77.887C209.142,78.375 213.087,82.449 214.966,83.734C215.557,84.137 216.461,85.419 216.975,86.582L217.91,88.697L220.142,88.976C222.757,89.302 224.107,90.56 224.803,93.318C225.661,96.716 226.219,97.794 227.416,98.37C229.555,99.399 233.659,100.051 236.265,99.775C238.485,99.54 239.238,99.228 241.733,97.506C242.36,97.073 242.562,97.134 243.133,97.935C243.5,98.449 244.413,99.582 245.162,100.452C247.171,102.786 245.226,103.617 237.2,103.852C224.472,104.226 224.2,104.35 224.2,109.752C224.2,114.864 225.522,116.16 228.327,113.8C229.8,112.561 230.012,112.561 231.838,113.8C233.824,115.148 234.575,115.067 236.963,113.249C240.568,110.505 242.308,110.341 244.7,112.52C247.065,114.674 242.37,119.207 236.162,120.764C231.763,121.867 229.893,122.831 228.838,124.539L227.995,125.902L228.789,127.651C230.632,131.713 227.701,134.705 223.79,132.752C220.224,130.971 215.691,133.035 216.383,136.125C216.788,137.93 216.631,138.84 215.434,141.642C215.214,142.156 215.639,142.418 217.582,142.963C218.915,143.337 220.494,144.064 221.092,144.578L222.179,145.513L221.285,148.056C220.794,149.455 220.394,151.161 220.396,151.846C220.402,153.709 219.108,155.054 216.612,155.779C214.198,156.481 214.053,156.626 213.2,159.194C212.601,160.998 212.451,161.121 208.81,162.802C208.486,162.952 208.036,163.8 207.81,164.686C207.002,167.862 203.066,169.171 200.813,167.013C199.288,165.552 196.086,164.729 191.6,164.644C187.885,164.574 184.4,163.507 184.4,162.44C184.4,161.093 174.942,159.552 170.943,160.247C166.369,161.042 165.258,161.453 163.98,162.821C162.876,164.003 162.641,164.083 160.893,163.871C155.886,163.265 153.67,162.796 152.215,162.032C150.018,160.878 149.86,160.923 147.391,163.391C144.779,166.004 144.814,165.767 146.77,167.572C148.172,168.867 148.37,169.289 148.623,171.52C148.89,173.879 148.997,174.079 150.546,175.12C151.449,175.726 152.377,176.603 152.609,177.068C153.333,178.52 153.978,179.096 155.144,179.329C157.163,179.733 160.232,182.52 160.703,184.379C161.655,188.127 156.725,190.168 155.098,186.7C154.358,185.124 154.034,184.926 153.334,185.626C153.041,185.919 153.03,186.624 153.298,187.881C153.558,189.1 153.549,190.402 153.272,191.785C152.13,197.47 155.007,200.507 160.082,198.974C162.909,198.119 164.194,198.697 164.63,201.019C164.96,202.78 163.832,204.179 161.523,204.87C159.868,205.366 158.356,207.039 157.34,209.5C156.554,211.403 155.767,212.283 154.177,213.038C153.48,213.368 152.714,214.071 152.473,214.6C151.918,215.817 150.34,216.617 147.849,216.943C146.252,217.152 145.594,217.508 144.224,218.899C143.303,219.835 142.14,220.872 141.64,221.204C140.056,222.254 141.468,227.472 145.572,235.731L146.73,238.061L144.936,240.629C142.793,243.694 142.137,244.195 138.994,245.17C135.547,246.239 133.886,247.348 132.818,249.294C131.229,252.188 130.924,252.4 128.346,252.4C126.232,252.4 122.8,253.342 122.8,253.922C122.8,254.051 123.291,254.669 123.891,255.295C126.653,258.178 124.755,261.6 120.392,261.6C118.189,261.6 117.591,261.746 116.963,262.441C115.802,263.724 114.218,264.398 112.32,264.417C108.289,264.458 105.933,265.29 104.973,267.01C104.484,267.885 103.59,268.901 102.985,269.269C100.063,271.047 100.005,277.932 102.9,279.298C105.154,280.362 105.737,281.503 105.172,283.747C104.602,286.011 104.877,287.205 106.36,288.893C106.992,289.613 107.74,291.011 108.023,292.001C108.984,295.357 111.31,296.222 113.189,293.922C114.426,292.41 115.019,293.433 114.372,295.96C113.891,297.836 113.919,298.121 114.742,299.769C115.231,300.748 115.822,302.634 116.056,303.959C116.652,307.344 116.771,307.4 123.312,307.4L128.895,307.4L130.547,309.248C133.621,312.685 135.376,312.5 136.349,308.636C137.041,305.889 138.139,304.8 140.218,304.8C141.918,304.8 142.03,304.721 143.498,302.5C144.787,300.55 145.26,300.15 146.609,299.868C150.497,299.058 151.074,298.79 152.348,297.205C153.561,295.696 153.764,295.6 155.757,295.6C158.631,295.6 159.202,294.931 159.195,291.569C159.186,287.505 158.97,287.05 157.242,287.439C152.412,288.525 146.459,286.503 144.16,282.996C142.707,280.778 148.75,276.613 151.704,277.795C153.537,278.529 154.96,278.565 156.126,277.907C156.607,277.637 158.169,277.322 159.598,277.207L162.196,277L163.454,274.8C165.492,271.236 166.045,270.8 168.532,270.8C172.952,270.8 175.038,275.275 171.606,277.396C170.582,278.029 171.834,278.84 174.71,279.409C177.319,279.925 178.4,281.334 178.4,284.221C178.4,287.005 178.858,287.6 181,287.6C182.511,287.6 183.391,288.18 184.353,289.81C184.844,290.642 185.71,291.419 186.424,291.668C187.124,291.912 188.056,292.738 188.595,293.592C189.336,294.765 189.87,295.143 191.07,295.341C194.137,295.847 195.551,296.416 195.817,297.252C195.964,297.716 196.852,298.422 197.833,298.856C198.797,299.282 199.904,300.105 200.293,300.684C200.682,301.263 201.559,302.299 202.243,302.987C205.017,305.78 204.859,306.956 201.486,308.646C200.339,309.221 199.085,309.969 198.7,310.308C198.075,310.858 197.925,310.859 197.3,310.319C195.817,309.036 194.024,308.751 191.817,309.447C189.833,310.073 189.696,310.065 188.095,309.248C185.847,308.102 185.682,308.145 184.838,310.1C184.012,312.012 183.07,312.97 181.6,313.393C181.05,313.551 179.921,314.139 179.092,314.7C177.763,315.599 177.132,315.728 173.803,315.788C167.937,315.892 167.129,316.97 170.5,320.195C171.655,321.3 173.14,323.098 173.8,324.189C174.947,326.087 175.144,326.219 178.271,327.187C183.098,328.681 183.91,329.843 182.57,333.334C182.24,334.194 183.428,334.71 186.853,335.197C191.086,335.798 192.729,336.32 193.208,337.214C193.776,338.277 194.262,338.203 194.562,337.007C194.867,335.795 197.083,333.2 197.814,333.2C198.106,333.2 199.26,334.252 200.379,335.539C203.961,339.656 212.111,340.637 214.083,337.188C214.992,335.599 216.511,335.054 219,335.425C220.1,335.588 223.201,335.677 225.891,335.621L230.782,335.521L231.991,336.73C232.656,337.394 233.2,338.211 233.2,338.543C233.2,340.297 233.989,341.334 234.779,340.619C236.51,339.053 238.595,339.316 240.571,341.349C241.561,342.367 242.615,343.2 242.915,343.2C243.577,343.2 245.2,344.861 245.2,345.539C245.2,345.808 245.844,346.407 246.63,346.871C247.627,347.459 248.343,348.353 248.991,349.818C249.503,350.975 250.279,352.279 250.717,352.717C251.21,353.21 251.614,354.328 251.778,355.656C252.495,361.446 253.708,367.895 254.232,368.7C255.272,370.296 256.309,376.8 256.576,383.4C256.939,392.33 257.543,397.487 258.476,399.6C258.913,400.59 259.371,402.442 259.492,403.716C259.837,407.318 264.333,409.267 266.742,406.858C267.637,405.963 267.537,399.44 266.569,395.468C266.256,394.185 266,392.728 266,392.23C266,391.733 265.66,390.336 265.244,389.128C264.192,386.069 263.654,380.455 263.39,369.759C263.127,359.081 262.676,355.041 261.411,352.002C260.525,349.875 259.966,346.184 258.775,334.6C258.494,331.868 258.011,329.518 257.502,328.4C256.342,325.857 255.561,310.308 256.456,307.568C256.889,306.242 256.941,305.28 256.664,303.721C256.335,301.868 256.404,301.433 257.297,299.721C259.7,295.118 259.793,260.141 257.412,256.579C255.846,254.237 255.117,230.437 256.562,228.842C257.609,227.685 258.785,227.786 260.737,229.2C262.975,230.822 265.967,230.92 266.96,229.405C267.318,228.858 268.296,228.061 269.133,227.634C271.767,226.29 271.837,225.93 269.84,223.995C266.967,221.211 266.218,217.255 266.993,208.966L267.295,205.733L265.465,204.873C263.301,203.855 262.904,203.224 262.553,200.242C262.331,198.35 261.2,196.802 261.2,198.39C261.2,199.835 257.523,200.353 256.656,199.03C255.253,196.888 256.791,185.527 258.427,185.947C262.738,187.057 265.271,186.114 267.977,182.393C271.828,177.099 276.265,177.666 277.18,183.57C277.623,186.431 277.793,186.618 280.282,186.991C283.099,187.414 286.216,186.844 288.11,185.56C290.146,184.18 290.082,184.185 292.241,185.263L293.97,186.127L295.828,185.163C299.221,183.404 299.866,179.554 297.197,176.997C296.56,176.387 295.928,175.385 295.794,174.771C295.659,174.156 294.82,172.826 293.929,171.815C292.167,169.812 291.627,168.186 291.604,164.8C291.595,163.59 291.254,161.52 290.845,160.2C290.076,157.716 289.928,157.573 286.61,156.104C285.493,155.609 284.568,154.717 283.501,153.104C281.636,150.282 281.044,149.895 276.938,148.802C272.576,147.64 271.804,146.834 272.179,143.833C272.626,140.253 274.692,139.285 282.054,139.207C282.414,139.203 283.404,138.491 284.254,137.626C285.565,136.29 286.311,135.925 289.171,135.222C293.274,134.212 293.031,134.464 292.44,131.823C292.007,129.888 291.727,129.479 289.976,128.221L288,126.801L287.996,122.301C287.993,119.47 287.77,117.071 287.395,115.834C286.81,113.904 286.82,113.829 287.927,111.834C290.092,107.933 288.619,105.153 282.861,102.271C280.841,101.26 279.187,100.126 278.672,99.4C278.204,98.74 277.425,97.882 276.94,97.494C273.508,94.745 275.093,91.259 281.053,88.448C283.469,87.309 283.949,86.434 283.549,83.902C283.029,80.616 282.485,79.675 280.625,78.852L278.951,78.112L279.184,76.156C279.49,73.596 278.626,70.533 277.163,68.989C274.881,66.58 275.269,64.997 278.646,62.941C280.049,62.087 278.832,61.058 275.757,60.498C270.289,59.501 266.989,56.251 267.426,52.291C267.689,49.902 267.009,48 265.891,48C265.621,48 264.318,47.488 262.996,46.862C259.025,44.984 258.001,44.941 255.949,46.57M262.965,125.316C263.59,126.307 262.307,127.553 261.42,126.817C260.675,126.198 260.629,125.531 261.285,124.875C261.873,124.287 262.403,124.426 262.965,125.316M251.6,145L252.539,146L251.6,147C250.413,148.263 249.195,148.272 248.025,147.027L247.11,146.053L248.137,145.027C249.429,143.734 250.404,143.727 251.6,145M254.1,177.265C254.875,177.667 254.979,178.298 254.417,179.187C253.645,180.406 248.8,179.271 248.8,177.871C248.8,176.443 251.843,176.095 254.1,177.265M246.7,197.037C248.338,198.095 247.189,199.338 244.119,199.828C241.93,200.177 239.943,199.785 238.616,198.741L237.551,197.904L238.476,196.901C240.538,194.664 243.096,194.706 246.7,197.037M187.749,212.049C188.779,212.519 191.321,215.95 191.783,217.493C192.803,220.908 180.299,222.007 177.366,218.761C176.601,217.915 176.604,217.909 179.4,215.37C183.446,211.695 185.328,210.946 187.749,212.049M247.093,217.056L248.149,218.112L247.219,218.865C246.242,219.656 245.329,219.576 243.713,218.558C242.626,217.873 242.889,216.983 244.334,216.453C245.881,215.887 245.935,215.899 247.093,217.056M250.572,224.935C250.981,226.557 250.018,229.559 248.15,232.491C246.959,234.362 246.937,234.251 248.594,234.798C250.803,235.527 251.645,236.924 251.594,239.778C251.57,241.11 251.677,244.008 251.831,246.217C252.082,249.816 252.022,250.436 251.255,252.168C250.293,254.344 250.166,256.925 250.872,259.983C251.453,262.501 250.611,263.982 249.328,262.7C248.741,262.113 248.716,261.769 249.128,259.983C250.166,255.488 249.889,254.353 247.255,252.307L244.91,250.486L244.357,247.343C243.557,242.791 243.7,238.193 244.714,235.901C245.533,234.05 245.533,234.027 244.769,232.015C242.918,227.145 244.029,223.804 247.6,223.5C250.134,223.285 250.159,223.296 250.572,224.935M195.184,224.475C197.081,226.511 195.272,228.318 192.104,227.554C188.672,226.727 188.427,225.694 191.349,224.367C193.496,223.392 194.194,223.412 195.184,224.475M216.667,231.2C218.865,231.2 219.786,232.471 221.792,238.277C221.883,238.539 223.228,239.132 224.781,239.594C226.681,240.16 227.802,240.737 228.209,241.358C228.542,241.865 229.676,242.75 230.731,243.324C231.785,243.897 233.146,244.829 233.755,245.393C234.364,245.958 235.689,246.64 236.7,246.91C240.232,247.852 241.218,249.64 240.177,253.219C240.071,253.586 240.731,254.538 241.799,255.555C242.789,256.5 243.602,257.481 243.604,257.736C243.606,257.991 243.873,260.54 244.196,263.4C244.881,269.45 244.935,273.873 244.373,277.8C244.153,279.34 243.809,282.49 243.608,284.8C243.397,287.229 242.799,290.434 242.189,292.4C241.401,294.944 241.089,296.958 240.949,300.4C240.638,308.047 239.398,309.672 235.116,308.044C229.011,305.723 221.272,306.541 220.605,309.577C220.16,311.605 218.73,312.54 216.57,312.216C213.037,311.687 212,310.585 212,307.359C212,306.381 211.727,305.85 210.949,305.319C209.696,304.462 204.169,298.93 202.917,297.279C202.176,296.302 201.664,296.077 199.717,295.877C197.891,295.69 197.23,295.427 196.599,294.637C196.158,294.085 195.003,293.354 194.033,293.012C191.923,292.267 191.233,291.739 190.766,290.509C190.572,290.001 190.006,289.428 189.507,289.235C188.48,288.838 187.042,287.348 186.67,286.294C186.533,285.906 186.003,285.429 185.494,285.236C184.408,284.823 183.738,284.079 182.847,282.296C182.491,281.585 181.84,280.937 181.4,280.858C180.207,280.643 179.6,280.011 179.6,278.984C179.6,277.884 178.243,274.597 177.633,274.22C177.103,273.893 177.059,269.622 177.572,268.275C177.917,267.367 178.068,267.32 179.672,267.623C182.08,268.076 185.83,267.627 188.2,266.6C189.556,266.012 190.522,265.828 191.2,266.027C193.684,266.756 194.34,266.515 194.808,264.7C195.05,263.765 195.337,262.691 195.447,262.313C195.583,261.842 195.148,261.274 194.065,260.513C191.256,258.535 191.165,257.147 193.703,254.954C194.408,254.344 194.761,253.514 194.964,251.99C195.32,249.303 194.941,248.9 191.357,248.148C186.756,247.184 185.785,246.042 188.424,244.701C191.175,243.303 195.831,243.835 201.247,246.166C201.713,246.367 202.114,246.074 202.677,245.123C204.323,242.344 207.162,242.136 208.447,244.7C209.553,246.907 209.97,247.2 212,247.2C215.053,247.2 215.436,245.89 213.126,243.349C211.404,241.454 211.667,236.795 213.606,234.855C214.803,233.658 214.808,233.635 214.228,231.951C213.558,230.006 213.854,229.025 214.718,230.327C215.126,230.941 215.703,231.2 216.667,231.2M212.6,253.556C210.917,253.922 211.722,254.251 215.084,254.571C218.112,254.859 220.332,254.309 219.154,253.563C218.527,253.166 214.413,253.161 212.6,253.556M250.869,269.062C252.197,270.264 251.457,277.2 250,277.2C248.602,277.2 247.823,270.5 249.062,269.131C249.872,268.237 249.953,268.234 250.869,269.062M250.91,279.101C252.477,280.832 252.498,283.423 250.959,285.215C250.518,285.728 250.565,286.256 251.242,288.415C252.633,292.849 252.607,304.171 251.199,306.802C250.183,308.7 246.912,307.888 247.115,305.788C247.178,305.135 247.381,301.54 247.567,297.8C247.819,292.733 248.117,290.341 248.737,288.415C249.432,286.255 249.482,285.728 249.041,285.215C246.782,282.585 248.621,276.571 250.91,279.101M161.914,281.484C161.604,282.672 162.102,283.633 162.8,283.191C163.13,282.983 164.03,282.807 164.8,282.8C165.57,282.793 166.47,282.611 166.8,282.394C167.676,281.819 166.624,281.214 164.733,281.206C163.926,281.203 163.004,281.1 162.685,280.977C162.336,280.843 162.029,281.045 161.914,281.484M129.109,318.419C127.796,320.727 122.546,321.721 119.5,320.239C118.129,319.572 117.888,319.561 116.7,320.115C115.985,320.448 115.046,320.785 114.613,320.863C114.181,320.942 113.317,321.765 112.694,322.693C111.541,324.409 110.631,324.852 107.131,325.396C105.86,325.594 105.499,325.915 104.445,327.781C103.041,330.27 101.28,331.745 98.988,332.355C96.133,333.114 94.985,334.905 93.448,341C92.832,343.438 92.139,344.59 90.883,345.263C90.357,345.544 89.579,346.41 89.152,347.187C88.726,347.964 87.769,349.357 87.025,350.283C85.155,352.612 84.129,357.569 85.28,358.72C86.645,360.085 92.175,359.002 94,357.014C95.633,355.234 97.139,354.649 99.847,354.741C102.017,354.814 102.401,354.707 103.247,353.794C105.768,351.071 109.3,350.582 113.107,352.43C119.426,355.497 123.685,353.957 124.612,348.269C124.762,347.351 125.212,346.06 125.612,345.4C126.012,344.74 126.741,343.12 127.233,341.8C128.274,339.007 130.478,336.743 132.847,336.033C136.651,334.893 136.74,329.513 133.012,326.012C131.948,325.012 131.059,322.458 130.607,319.1C130.308,316.882 130.051,316.765 129.109,318.419M250.622,341.635C251.034,342.302 250.107,343.067 249.555,342.515C249.093,342.053 249.382,341.2 250,341.2C250.194,341.2 250.474,341.396 250.622,341.635" style="fill:white;"></path>    </g></svg>