<svg xmlns="http://www.w3.org/2000/svg" xmlns:xlink="http://www.w3.org/1999/xlink" xmlns:serif="http://www.serif.com/" width="100%" height="100%" viewBox="0 0 1107 1854" xml:space="preserve" style="fill-rule:evenodd;clip-rule:evenodd;stroke-linejoin:round;stroke-miterlimit:2;">    <g transform="matrix(1,0,0,1,-61.8095,-102.939)">        <path d="M915.001,341.774C922.196,343.107 929.453,344.17 936.569,345.839C946.725,348.22 949.423,353.489 945.93,363.087C940.309,378.538 940.365,378.695 954.664,387.475C965.987,394.427 966.196,397.424 955.871,405.977C952.94,408.404 949.903,410.702 946.174,413.644C956.998,418.903 965.886,423.221 975.124,427.709C969.498,436.042 956.781,443.002 971.325,455.03C958.346,455.03 946.626,454.994 934.907,455.048C930.418,455.069 925.893,454.983 921.45,455.508C915.975,456.154 912.353,459.402 911.083,464.884C909.799,470.43 911.087,475.756 915.907,478.533C920.634,481.256 926.351,483.975 931.568,483.855C969.881,482.973 1004.3,496.052 1037.96,512.245C1038.52,512.515 1038.95,513.041 1039.33,513.349C1031.15,517.97 1020.76,517.931 1014.15,525.904C1022.13,528.946 1029.96,531.76 1037.65,534.919C1042.7,536.994 1047.71,539.277 1052.45,541.983C1059.41,545.962 1059.48,549.951 1053.02,554.832C1050.9,556.433 1048.51,557.68 1046.42,559.313C1038.81,565.245 1038.37,571.36 1045.1,578.204C1048.25,581.406 1051.82,584.202 1054.89,587.472C1061.2,594.192 1060.55,598.715 1052.51,603.355C1040.64,610.211 1027.49,613.014 1014.11,615.025C1005.73,616.284 997.237,617.173 989.035,619.194C978.115,621.885 975.192,627.992 978.876,638.66C980.281,642.729 982.345,646.571 983.75,650.64C986.101,657.445 984.384,661.29 977.331,663.085C970.111,664.923 962.664,665.977 955.261,666.949C948.169,667.881 940.992,668.153 933.883,668.979C932.292,669.164 930.828,670.449 928.101,671.844C939.041,678.232 948.571,683.797 958.582,689.643C954.856,692.577 951.402,695.139 948.137,697.922C945.745,699.961 943.295,702.059 941.41,704.54C937.713,709.406 937.704,714.933 942.216,718.968C946.206,722.535 950.97,725.634 955.92,727.638C963.483,730.7 965.8,736.994 967.79,743.741C968.104,744.808 967.402,746.337 966.825,747.478C961.941,757.139 962.451,762.823 970.368,770.215C979.24,778.499 988.737,786.109 997.859,794.13C1002.86,798.523 1007.9,802.913 1012.44,807.756C1017.13,812.76 1016.78,815.981 1011.54,820.371C1008.26,823.122 1004.6,825.418 999.975,828.73C1003.38,830.058 1005.89,831.586 1008.58,831.995C1025.92,834.641 1032.93,842.746 1034.18,860.239C1034.48,864.42 1037.5,868.678 1040.05,872.356C1042.97,876.565 1046.92,880.046 1050.15,884.065C1054.1,888.984 1057.76,894.134 1061.89,899.65C1052.15,903.875 1042.78,907.956 1033.38,912.004C1030.95,913.052 1028.41,913.846 1026.04,915.019C1017.48,919.267 1016.14,927.865 1023.67,933.758C1028.57,937.587 1034.42,940.26 1040,943.138C1046.05,946.254 1052.42,948.752 1058.41,951.975C1068.87,957.609 1073.26,965.618 1067.15,976.01C1064.83,979.948 1066.76,984.505 1070.73,987.196C1077.53,991.798 1078.59,995.243 1075.57,1002.81C1074.4,1005.74 1072.95,1008.58 1072.12,1011.6C1070.23,1018.43 1072.15,1022.26 1079.06,1023.95C1086.46,1025.75 1094.08,1026.68 1101.61,1028.01C1103.39,1028.33 1105.16,1028.7 1107.34,1029.12C1104,1034.35 1100.82,1039.2 1097.78,1044.13C1091.64,1054.06 1094.86,1060.84 1106.46,1062.19C1111.08,1062.73 1115.77,1062.66 1120.41,1063.01C1131.19,1063.84 1133.97,1067.97 1130.61,1078.12C1129.88,1080.31 1129.01,1082.45 1128.15,1084.75C1132.29,1087.17 1140.24,1085.54 1139.97,1092.29C1139.8,1096.51 1135.33,1100.56 1132.76,1104.72C1133.92,1104.97 1135.65,1105.25 1137.32,1105.72C1143.38,1107.44 1146.24,1110.42 1145.35,1116.52C1143.12,1131.94 1148.68,1145.68 1153.32,1159.73C1158.11,1174.21 1163.24,1188.62 1167.07,1203.36C1170.57,1216.79 1165.17,1222.99 1151.17,1223.94C1143.34,1224.47 1135.53,1225.2 1127.7,1225.71C1123.37,1225.99 1123.04,1229 1124.33,1231.64C1126.87,1236.86 1130.14,1241.72 1133.14,1246.71C1135.35,1250.37 1137.86,1253.87 1139.77,1257.68C1142.38,1262.88 1141.31,1267.55 1136.26,1270.57C1129.57,1274.59 1122.48,1277.97 1115.51,1281.51C1107.13,1285.75 1098.63,1289.74 1090.32,1294.11C1088.04,1295.31 1085.82,1297.16 1084.34,1299.26C1078.2,1307.94 1076.64,1313.92 1087.12,1319.46C1093.92,1323.06 1101.53,1325.17 1108.76,1327.98C1111.93,1329.22 1115.31,1330.16 1118.18,1331.92C1126.25,1336.83 1128.6,1342.84 1123.99,1351.11C1117.73,1362.35 1119.5,1373.26 1122.72,1384.53C1123.12,1385.91 1123.39,1387.32 1123.94,1389.69C1112.48,1388.86 1101.48,1388.08 1089.66,1387.23C1090.53,1393.91 1091.1,1401.75 1092.61,1409.41C1096.46,1428.87 1101.09,1448.18 1104.68,1467.68C1106.29,1476.41 1106.39,1485.46 1106.67,1494.38C1106.75,1496.81 1105.62,1500.56 1103.9,1501.4C1102.28,1502.21 1098.49,1500.67 1096.83,1498.99C1090.35,1492.46 1084.45,1485.36 1078.11,1478.69C1071.45,1471.69 1066.93,1462.48 1057.63,1458.23C1054.25,1456.68 1050.47,1455.88 1046.8,1455.09C1046.05,1454.93 1044.36,1456.16 1044.11,1457.04C1042.35,1463.02 1042.02,1468.95 1045.17,1474.73C1050.98,1485.39 1056.7,1496.09 1062.31,1506.85C1065.67,1513.28 1062.94,1517.5 1055.62,1518.03C1051.28,1518.35 1046.94,1519.01 1042.66,1519.82C1035.91,1521.1 1034.71,1524.21 1038.41,1530.12C1038.84,1530.82 1039.19,1531.56 1039.78,1532.65C1030.21,1537.73 1020.82,1543.26 1010.94,1547.69C1007.14,1549.4 1002.21,1548.58 997.814,1549.02C994.961,1549.31 989.941,1549.25 989.672,1550.31C988.594,1554.55 987.572,1559.75 989.145,1563.51C992.348,1571.15 997.244,1578.09 1001.86,1586.03C997.679,1586.61 993.712,1587.19 989.735,1587.7C986.162,1588.17 982.553,1588.41 979.011,1589.03C977.605,1589.28 976.339,1590.32 975.009,1591C975.83,1592.31 976.345,1594.1 977.523,1594.86C985.721,1600.19 991.216,1607.7 992.499,1617.14C993.62,1625.4 993.375,1634 992.503,1642.32C991.091,1655.77 990.851,1668.39 1002.99,1677.77C1006.33,1680.35 1005.89,1683.86 1002.14,1685.76C996.868,1688.44 991.43,1689.08 985.238,1688.28C975.549,1687.02 965.808,1683.98 955.826,1686.78C951.004,1688.13 948.52,1691.32 950.384,1695.84C952.153,1700.12 954.797,1704.12 957.521,1707.91C960.682,1712.32 964.939,1716.01 967.656,1720.63C971.776,1727.65 970.308,1732.6 963.799,1737.67C962.119,1738.99 960.315,1740.14 958.417,1741.47C959.306,1747.33 960.263,1753.48 961.163,1759.63C962.613,1769.54 969.632,1776.03 975.593,1783.17C977.501,1785.45 979.351,1787.81 981.468,1789.89C984.749,1793.12 986.009,1796.55 984.009,1801.01C981.821,1805.88 984.139,1809.87 987.033,1813.61C988.348,1815.31 989.824,1816.89 991.097,1818.62C996.313,1825.71 994.654,1830.92 986.279,1833.93C973.915,1838.37 972.922,1841.41 981.048,1851.78C990.227,1863.48 999.667,1874.98 1008.97,1886.59C1010,1887.86 1010.89,1889.25 1011.9,1890.67C1003.53,1893.62 995.779,1897.31 993.611,1906.78C992.52,1911.55 992.459,1916.56 992.014,1921.47C991.657,1925.42 991.775,1929.44 991.067,1933.32C989.382,1942.54 987.445,1944.11 978.346,1943.96C973.616,1943.88 968.783,1942.59 964.207,1943.27C960.98,1943.74 957.5,1946.04 955.184,1948.51C946.921,1957.33 936.467,1958.99 924.74,1954.01C908.545,1947.14 892.821,1939.5 878.748,1928.85C871.404,1923.29 864.508,1917.14 857.107,1911.66C849.844,1906.29 845.548,1903.82 837.6,1913.52C831.62,1920.82 824.136,1927.06 816.635,1932.88C810.701,1937.49 804.333,1935.45 801.195,1928.52C798.667,1922.93 796.848,1916.99 795.086,1911.1C791.076,1897.68 787.736,1884.05 783.317,1870.78C776.695,1850.88 766.111,1832.87 755.512,1814.88C749.78,1805.16 744.568,1795.13 738.937,1785.35C738.101,1783.9 735.98,1781.85 734.905,1782.09C726.936,1783.87 719.317,1780.95 711.526,1780.83C703.199,1780.7 694.872,1780.32 686.546,1780.33C662.931,1780.36 639.322,1781.24 616.013,1785.13C597.914,1788.15 580.58,1793.38 563.63,1801.24C541.048,1811.72 517.728,1811.36 496.178,1796.52C493.853,1794.92 493.533,1792.68 493.006,1789.94C491.469,1781.94 484.958,1778.21 477.949,1776.05C472.788,1774.46 467.203,1774.25 461.452,1773.37C460.905,1777.43 460.383,1780.79 460.016,1784.17C459.684,1787.23 459.155,1788.73 455.321,1787.15C451.237,1785.45 446.608,1784.14 442.279,1784.31C439.406,1784.41 435.998,1786.85 433.953,1789.21C428.822,1795.15 424.761,1802.03 419.473,1807.8C412.788,1815.1 401.38,1812.55 400.051,1802.19C399.714,1799.56 398.761,1797.01 398.099,1794.42C398.018,1794.1 398.032,1793.76 397.92,1793.46C393.296,1781.07 393.342,1781.21 381.114,1785.22C373.125,1787.84 367.987,1793.56 363.397,1800.09C361.886,1802.24 360.387,1804.43 358.637,1806.38C355.053,1810.37 350.519,1812.13 345.263,1810.65C339.833,1809.13 334.085,1807.38 332.678,1800.98C332.172,1798.67 333.387,1795.77 334.433,1793.41C335.4,1791.23 337.191,1789.42 339.234,1786.59C334.091,1785.91 329.428,1785.04 324.727,1784.72C313.979,1783.98 304.127,1780.91 295.056,1774.96C291.975,1772.94 291.276,1771.25 293.518,1768.45C299.262,1761.3 305.04,1754.18 310.684,1747.2C306.086,1745.38 300.371,1743.43 294.924,1740.91C285.991,1736.76 285.176,1731.78 292.057,1724.89C294.915,1722.04 297.991,1719.39 300.934,1716.62C304.114,1713.62 304.686,1710.31 302.777,1706.2C299.117,1698.33 295.814,1690.28 292.052,1681.59C301.567,1679.99 309.427,1675.89 318.807,1677.8C328.587,1679.79 337.903,1677.2 345.885,1670.83C346.658,1670.22 347.53,1669.54 347.949,1668.69C352.761,1658.94 362.679,1658.05 370.861,1666.93C373.535,1669.83 376.514,1672.45 379.337,1675.22C383.543,1679.34 388.2,1678.65 394.237,1676.29C390.505,1669.48 386.951,1662.99 383.136,1656.04C391.811,1657.08 400.239,1653.33 409.046,1656.73C412.311,1657.99 416.932,1656.68 420.634,1655.55C423.499,1654.68 425.852,1652.68 423.353,1648.57C421.006,1644.72 419.724,1640.21 417.892,1635.79C432.198,1638.11 446.624,1644.44 462.422,1639.23C457.107,1632.14 454.495,1622.99 443.857,1620.56C440.886,1619.89 438.835,1615.18 436.128,1612.05C442.44,1608.19 447.689,1607.62 453.19,1610.73C455.646,1612.11 458.126,1613.68 460.801,1614.39C464.298,1615.31 468,1615.45 472.055,1615.98C471.153,1610.59 469.488,1607.44 464.931,1606.78C464.618,1606.74 464.286,1606.56 464.042,1606.35C461.636,1604.28 457.261,1602.12 457.338,1600.14C457.443,1597.43 460.863,1594.79 463.019,1592.26C464.791,1590.17 467.552,1588.61 468.564,1586.26C473.938,1573.74 476.625,1572.47 489.584,1577.62C497.907,1566.18 502.425,1553.22 502.86,1539.19C503.298,1525.06 502.209,1510.89 502.375,1496.75C502.594,1478.1 503.645,1459.46 503.86,1440.82C504.116,1418.65 503.862,1396.49 503.833,1374.32C503.818,1362.97 501.908,1360.19 491.29,1356.17C489.285,1355.41 487.266,1354.69 485.322,1353.97C484.924,1354.15 484.521,1354.2 484.347,1354.42C475.286,1366.17 475.361,1366.51 484.026,1379.01C486.369,1382.38 488.515,1386.03 489.997,1389.84C491.698,1394.22 490.032,1396.99 485.471,1397.95C482.418,1398.59 479.209,1398.56 476.064,1398.69C467.733,1399.05 465.444,1401.53 465.906,1409.81C466.017,1411.8 466.753,1414.14 465.973,1415.71C464.445,1418.77 462.659,1422.49 459.911,1424.03C448.238,1430.59 446.237,1435.51 452.521,1447.38C456.931,1455.71 458.069,1463.44 452.114,1471.64C450.746,1473.52 450.708,1477.33 451.575,1479.69C453.903,1486.04 456.581,1492.36 460.01,1498.17C463.354,1503.83 464.449,1509.12 461.16,1515.12C452.914,1516.55 446.525,1512.87 440.854,1507.31C435.57,1502.13 429.472,1498.94 421.904,1498.39C418.476,1498.14 416.026,1499.16 415.389,1502.19C415.097,1503.57 416.747,1506.11 418.202,1506.99C424.132,1510.58 430.326,1513.74 435.751,1516.69C431.914,1521.95 426.344,1527.14 423.891,1533.54C420.69,1541.88 428.567,1546.36 434.098,1551.47C430.05,1553.06 426.361,1554.41 422.751,1555.94C414.762,1559.33 414.216,1563.31 421.045,1568.87C426.723,1573.49 432.535,1577.95 438.28,1582.49C439.439,1583.4 440.56,1584.37 442.336,1585.83C437.144,1586.96 432.56,1587.98 427.965,1588.95C423.449,1589.91 418.922,1590.81 413.844,1591.84C416.707,1597.85 419.319,1603.35 421.946,1608.85C426.11,1617.56 424.455,1621.88 415.115,1623.23C403.74,1624.87 392.322,1625.16 382.096,1617.96C375.062,1613.01 372.333,1605.76 370.11,1598.05C367.838,1590.18 366.538,1581.83 362.987,1574.58C358.707,1565.84 350.068,1561.3 340.823,1558.97C335.661,1557.66 330.409,1557.13 328.23,1551.4C325.544,1544.35 327.217,1537.77 330.989,1531.55C332.932,1528.35 334.936,1525.19 336.913,1522.01C336.488,1521.52 336.063,1521.02 335.638,1520.52C330.458,1521.94 324.975,1522.7 320.165,1524.91C311.601,1528.86 303.268,1533.4 295.163,1538.23C285.73,1543.86 275.673,1546.52 264.945,1544.79C256.564,1543.44 251.885,1537.19 249.153,1529.49C248.102,1526.53 247.594,1523.32 246.189,1520.55C243.648,1515.55 236.363,1513.8 229.354,1515.15C220.753,1516.81 212.029,1517.88 203.328,1518.95C198.673,1519.53 194.026,1518.08 192.416,1513.62C190.622,1508.66 194.569,1504.89 197.919,1501.81C204.862,1495.42 212.134,1489.38 220.004,1482.57C207.406,1480.15 196.039,1477.98 184.676,1475.78C183.608,1475.58 182.547,1475.3 181.509,1474.97C173.666,1472.5 172.068,1467.64 177.991,1461.78C183.103,1456.72 189.21,1452.66 194.91,1448.2C196.128,1447.25 197.488,1446.47 199.15,1445.37C192.948,1441.55 186.775,1437.8 180.671,1433.94C175.973,1430.98 175.915,1429.34 180.414,1426.11C185.194,1422.67 190.075,1419.37 195.881,1415.34C185.052,1410.98 175.247,1406.67 165.19,1403.08C156.134,1399.84 152.448,1392.23 149.21,1384.46C147.578,1380.54 147.404,1375.88 147.211,1371.53C147.041,1367.69 149.273,1364.67 153.194,1364.27C158.923,1363.67 164.724,1363.75 170.496,1363.57C175.962,1363.4 181.43,1363.26 186.977,1362.31C179.404,1357.23 172.706,1352.04 167.985,1344.51C164.778,1339.39 165.283,1335.61 170.748,1333.1C176.427,1330.5 182.357,1328.44 188.156,1326.1C189.884,1325.4 191.54,1324.52 193.947,1323.38C180.423,1319.25 165.972,1319.97 156.973,1308.3C167.876,1299.57 179.869,1302.85 192.103,1306.69C200.02,1309.18 208.137,1311.7 217.004,1308.52C202.975,1292.81 189.035,1277.2 174.664,1261.11C176.49,1259.39 178.172,1257.81 180.291,1255.81C169.26,1246.95 158.164,1238.03 145.933,1228.2C148.408,1226.82 150.25,1225.12 152.33,1224.75C158.498,1223.64 164.762,1223.07 170.983,1222.24C171.696,1222.14 172.369,1221.74 173.05,1220.66C169.852,1220.11 166.666,1219.18 163.454,1219.08C152.135,1218.73 140.783,1218.28 129.788,1221.97C125.843,1223.3 121.886,1224.68 117.831,1225.57C109.297,1227.42 102.66,1223.82 97.236,1217.56C94.827,1214.77 96.436,1212.04 98.477,1210.16C104.862,1204.28 111.51,1198.69 118.437,1192.65C112.033,1189.75 105.093,1186.14 97.809,1183.46C93.374,1181.83 88.32,1181.98 83.7,1180.74C76.019,1178.69 75.842,1176.27 80.04,1169.52C83.538,1163.89 85.755,1157.4 88.022,1151.11C89.17,1147.93 90.086,1145.32 95.096,1146.05C88.711,1138.22 82.916,1131.12 76.9,1123.74L108.91,1123.74C99.183,1112.12 83.491,1107.54 79.111,1092.09C89.525,1086.81 100.318,1087.8 111.194,1088.91C113.189,1089.11 115.341,1087.76 117.961,1086.96C109.635,1076.51 99.221,1072.72 87.793,1070.58C80.951,1069.31 74.04,1067.92 67.506,1065.61C61.525,1063.49 60.353,1058.9 63.523,1053.3C66.128,1048.69 69.362,1044.42 71.78,1039.73C73.376,1036.63 73.993,1033.04 75.097,1029.68C76.459,1025.53 78.617,1022.28 83.372,1021.34C85.552,1020.9 87.584,1019.72 90.318,1018.63C84.272,1010.32 78.363,1002.19 71.961,993.385C76.096,992.257 79.42,991.261 82.788,990.449C91.467,988.358 93.728,984.621 91.064,976.375C90.367,974.219 89.366,972.161 88.537,970.045C87.007,966.143 88.873,962.98 93.059,963.078C102.263,963.293 111.46,963.829 120.411,964.222C116.481,957.149 112.794,950.274 108.865,943.541C106.924,940.216 108.771,938.238 111.343,937.814C117.614,936.782 124.059,936.802 130.331,935.773C135.554,934.916 140.814,933.623 145.703,931.647C148.64,930.46 148.011,924.718 144.353,921.938C140.267,918.832 135.764,916.116 131.107,913.954C122.578,909.994 113.772,906.635 105.141,902.89C99.462,900.425 96.497,896.238 97.001,891.895C97.753,885.418 102.471,879.16 108.242,879.216C117.373,879.307 126.487,880.732 135.616,881.498C138.905,881.775 142.32,882.347 145.491,881.765C149.267,881.071 152.711,879.266 152.073,874.191C151.385,868.722 151.428,863.109 150.224,857.769C148.09,848.301 150.775,842.735 162.09,837.063C160.913,833.387 160.242,829.196 158.278,825.74C156.234,822.142 152.941,819.253 150.384,816.277C159.981,811.096 169.132,805.338 178.96,801.184C184.111,799.007 190.591,798.596 196.21,799.344C200.61,799.929 205.227,799.867 206.278,796.516C207.17,793.67 204.776,788.805 202.385,786.131C197.985,781.211 192.508,777.257 187.506,772.87C186.666,772.133 185.956,771.249 185.057,770.298C192.069,766.471 198.904,762.805 205.679,759.03C215.864,753.355 216.089,747.306 206.492,740.687C203.461,738.597 200.582,736.287 197.609,734.111C194.678,731.965 191.715,729.862 189.074,727.961C195.456,726.203 201.975,724.567 208.387,722.587C212.562,721.297 213.347,718.897 211.376,715.004C207.873,708.088 201.699,705.644 194.493,704.612C189.195,703.853 183.748,703.233 178.748,701.47C167.721,697.58 167.929,691.042 168.056,682.567C168.147,676.5 168.508,670.423 169.06,664.38C169.394,660.722 170.085,657.055 171.029,653.502C173.825,642.988 180.567,642.128 191.681,641.202C193.995,641.009 196.555,641.543 198.592,640.723C202.968,638.961 202.976,634.027 198.895,629.344C194.043,623.778 188.282,618.765 184.544,612.535C180.68,606.094 178.142,598.638 176.309,591.305C175.566,588.331 176.772,583.539 181.356,582.284C191.703,579.452 202.059,576.633 212.482,574.102C217.544,572.872 222.765,572.302 228.124,571.398C224.945,564.521 222.111,558.236 219.139,552.016C217.124,547.798 218.153,546.075 222.895,546.108C224.395,546.118 225.894,546.146 227.393,546.168C238.687,546.332 238.687,546.332 249.904,540.875C247.38,532.6 239.563,531.709 233.152,528.813C224.694,524.992 216.287,521.062 207.858,517.179C207.835,516.676 207.813,516.173 207.79,515.67C214.615,513.134 221.348,510.305 228.287,508.135C237.07,505.39 246.318,503.601 252.487,495.972C254.335,493.688 256.355,490.375 256.074,487.774C255.44,481.901 259.128,479.809 263.095,478.271C267.796,476.449 272.938,475.8 277.76,474.243C281.256,473.114 284.701,471.609 287.876,469.768C290.854,468.041 291.056,462.463 288.449,459.876C282.467,453.94 274.443,452.222 266.824,449.765C260.539,447.738 253.877,446.639 247.907,443.958C243.792,442.11 240.206,438.606 237.061,435.213C233.918,431.822 231.619,427.65 228.781,423.579C239.633,419.208 250.285,415.523 262.048,415.896C268.109,416.088 274.673,417.765 279.881,412.265C273.404,400.724 266.727,388.824 259.6,376.122C266.317,375.445 272.477,375.005 278.582,374.169C291.923,372.342 301.095,364.774 302.062,349.677C302.86,337.223 302.643,324.705 302.952,312.218C303.029,309.127 302.878,305.885 303.752,302.99C305.455,297.343 308.946,294.593 315.273,295.174C324.217,295.996 330.557,292.16 336.425,286.192C345.539,276.923 355.008,268 364.027,258.642C368.427,254.077 372.216,248.911 376.155,243.918C378.3,241.199 380.466,239.417 384.391,239.712C390.184,240.148 393.376,237.738 395.283,232.207C397.611,225.458 399.431,218.523 401.974,211.861C403.665,207.43 405.809,203.033 408.532,199.174C411.283,195.276 415.259,193.239 420.588,193.672C426.381,194.143 431.309,191.618 434.728,186.732C437.302,183.055 439.634,179.208 442.251,175.565C447.19,168.69 453.859,165.955 462.274,167.417C470.164,168.788 473.131,165.622 471.595,157.664C469.025,144.346 472.87,138.823 486.392,136.645C490.49,135.985 494.672,135.829 498.753,135.097C508.844,133.285 515.79,127.399 518.567,117.6C521.095,108.68 526.565,104.419 535.572,103.417C549.846,101.829 563.077,104.027 574.915,112.615C577.606,114.566 580.489,116.251 583.198,118.178C588.122,121.681 593.6,122.304 599.385,121.515C603.01,121.021 606.621,120.208 610.259,120.06C618.981,119.706 622.72,123.137 623.627,131.885C623.78,133.36 623.802,134.849 623.924,137.038C630.37,133.488 636.367,130.015 642.525,126.852C646.93,124.589 651.416,122.327 656.109,120.825C661.076,119.235 664.448,121.287 666.079,126.348C667.038,129.321 667.519,132.481 667.914,135.595C668.857,143.028 672.31,146.497 679.583,145.036C689.96,142.951 700.62,140.946 710.264,136.817C731.908,127.548 753.033,128.611 774.218,137.278C784.004,141.281 786.028,146.899 782.237,156.841C779.99,162.734 777.747,168.628 775.51,174.524C775.395,174.827 775.358,175.159 775.136,176.122C782.22,177.072 789.217,178.338 796.27,178.889C810.873,180.03 813.415,184.763 805.402,197.07C800.697,204.295 795.669,211.309 790.047,219.496C798.191,220.086 805.508,220.815 812.843,221.085C818.995,221.312 825.167,220.95 831.329,220.945C840.357,220.938 847.336,224.789 852.292,232.324C854.572,235.791 856.851,239.258 859.342,243.049C860.448,242.59 861.692,242.24 862.765,241.602C871.559,236.376 880.351,238.175 889.121,241.581C894.085,243.508 892.407,247.769 891.701,251.006C888.961,263.557 888.798,263.521 901.249,267.467C915.758,272.065 920.187,278.682 919.256,294.082C918.954,299.072 921.903,302.5 925.459,305.438C928.278,307.766 931.433,309.717 934.095,312.204C940.107,317.82 940.068,323.146 933.463,327.995C927.726,332.208 921.383,335.595 914.828,339.693C913.799,340.35 913.25,340.662 911.721,341.529C913.774,341.682 914.388,341.728 915.001,341.774Z" style="fill:rgb(0,5,10);fill-rule:nonzero;"></path>    </g></svg>